# xmcd
#
# Track frame offsets: 
#        300
#        19422
#        36743
#        51005
#        63890
#        79427
#        94294
#        106386
#        121944
#        157461
#
# Disc length: 2299 seconds
#
# Revision: 0
# Processed by: cddbd v1.5.2PL0 Copyright (c) Steve Scherf et al.
# Submitted via: ExactAudioCopy v0.99pb5
#
DISCID=9208f70a
DTITLE=The Blues Brothers - The Blues Brothers Soundtrack
DYEAR=1980
DGENRE=Contemporary Blues
TTITLE0=She Caught The Katy
TTITLE1=Peter Gunn Theme
TTITLE2=Gimme Some Lovin'
TTITLE3=Shake A Tail Feather
TTITLE4=Everybody Needs Somebody To Love
TTITLE5=Think
TTITLE6=Theme From Rawhide
TTITLE7=Minnie The Moocher
TTITLE8=Sweet Home Chicago
TTITLE9=Jailhouse Rock
EXTD=
EXTT0=
EXTT1=
EXTT2=
EXTT3=
EXTT4=
EXTT5=
EXTT6=
EXTT7=
EXTT8=
EXTT9=
PLAYORDER=
